<?xml version="1.0" encoding="utf-8"?>
<!DOCTYPE svg PUBLIC "-//W3C//DTD SVG 1.0//EN" "http://www.w3.org/TR/2001/REC-SVG-20010904/DTD/svg10.dtd">
<svg version="1.0" xmlns="http://www.w3.org/2000/svg" width="21px" height="20px" viewBox="0 0 21 20" preserveAspectRatio="xMidYMid meet">
 <g fill="#010809">
  <path d="M0 10 l0 -10 10.5 0 10.5 0 0 10 0 10 -10.5 0 -10.5 0 0 -10z"/>
 </g>
 <g fill="#0b404a">
  <path d="M2.9 17.1 c-4.1 -4.2 -4.1 -10.1 0.1 -14.2 2.6 -2.6 3.6 -3 7.7 -2.7 2.5 0.2 4.8 0.8 5 1.4 0.3 0.8 -1 1 -4.1 0.7 -3.8 -0.5 -4.8 -0.2 -7 2 -3.4 3.4 -3.4 7.9 -0.1 11.2 5.1 5.2 14.5 1.6 14.5 -5.4 0 -4.8 -1.7 -4.5 -4.7 0.9 -1.5 2.7 -3.2 5 -3.8 5 -0.5 0 -2 -1.6 -3.3 -3.5 -1.7 -2.7 -1.9 -3.5 -0.7 -3.5 0.8 0 1.9 1 2.6 2.2 1.1 2 1.3 1.8 4.7 -3.7 l3.5 -5.8 1.9 2.3 c2.9 3.6 2.4 9.6 -1.1 13.1 -2.4 2.4 -3.8 2.9 -7.6 2.9 -3.8 0 -5.2 -0.5 -7.6 -2.9z"/>
 </g>
 <g fill="#126e80">
  <path d="M3.4 16.6 c-4.6 -4.6 -4.6 -8.6 0 -13.2 3.5 -3.5 8.3 -4.5 11.5 -2.5 1 0.7 0 0.9 -3.1 0.8 -3.7 -0.2 -5.2 0.3 -7.2 2.2 -6.8 6.4 0.1 17 9.1 14 4.4 -1.4 6.8 -6.4 5.2 -10.6 l-1 -2.8 -3.1 5 c-4.2 7 -4.3 7 -6.8 3.5 -2.6 -3.6 -1.9 -5.4 0.8 -2 l1.9 2.3 3.1 -5.2 c1.8 -2.8 3.6 -5.1 4 -5.1 1.1 0 3.2 4.6 3.2 7 0 3.3 -2.3 7.1 -5.1 8.6 -4.8 2.4 -8.7 1.8 -12.5 -2z"/>
 </g>
 <g fill="#1997b0">
  <path d="M6.5 19.1 c-6.4 -2.8 -8.2 -11.4 -3.2 -15.7 3.5 -3 7.2 -4 10 -2.6 1.9 1 1.8 1 -0.9 0.5 -7 -1.2 -12.9 5.6 -10.4 11.7 3.3 7.9 14.9 7.5 17.4 -0.7 0.8 -2.4 -0.2 -7.3 -1.4 -7.3 -0.4 0 -2.3 2.5 -4.1 5.5 -3.6 6 -4.1 5.9 -7 0 -0.9 -1.7 -0.7 -1.7 1 0.3 1 1.2 2.2 2.2 2.5 2.2 0.3 0 2 -2.3 3.7 -5.1 2.9 -4.6 3.3 -4.9 4.8 -3.5 2.5 2.6 2 9.1 -1 12.1 -2.7 2.8 -8.2 4 -11.4 2.6z"/>
 </g>
</svg>